<?xml version="1.0" encoding="utf-8"?>
<!-- Generator: Adobe Illustrator 27.8.1, SVG Export Plug-In . SVG Version: 6.00 Build 0)  -->
<svg version="1.1" id="Layer_1" xmlns="http://www.w3.org/2000/svg" xmlns:xlink="http://www.w3.org/1999/xlink" x="0px" y="0px"
	 viewBox="0 0 3000 3000" style="enable-background:new 0 0 3000 3000;" xml:space="preserve">
<style type="text/css">
	.st0{fill:none;}
</style>
<path d="M1500.04,886.63l-0.16,0.38l0.16,0.08l0.31,0.16L1500.04,886.63z M1499.88,887.01 M934.13,1289.51l-0.54,0.93h1.01
	L934.13,1289.51z"/>
<path d="M1500.04,886.63v0.46 M934.13,1289.51l-0.54,0.93h1.01L934.13,1289.51z"/>
<path d="M1289.59,496v97.97c-345.13,79.72-616.75,351.34-696.47,696.47h-97.96C578.06,892.37,891.52,578.91,1289.59,496z"/>
<path d="M1289.59,2407.74v97.97c-15.14-3.11-30.04-6.52-44.87-10.32c-1.4-0.39-2.79-0.7-4.19-1.09
	c-374.63-97.58-665.97-401.41-745.38-783.03h97.89c67.85,293.59,274.57,534,547.35,648.35h0.08c7.69,3.26,15.45,6.44,23.29,9.39
	c25.07,9.78,50.69,18.48,76.77,25.93C1256.75,2399.66,1273.06,2403.93,1289.59,2407.74z"/>
<path d="M2504.85,1290.44h-97.97c-79.72-345.13-351.42-616.75-696.47-696.55V496C2108.48,578.83,2421.94,892.29,2504.85,1290.44z"/>
<path d="M2317.69,1290.44h-81.66c-72.27-253.61-272.08-453.35-525.62-525.69v-81.51C2007.49,759.47,2241.38,993.36,2317.69,1290.44z
	"/>
<path d="M1289.59,683.24v81.59c-253.53,72.27-453.34,272.08-525.62,525.62h-81.59C758.62,993.36,992.51,759.47,1289.59,683.24z"/>
<line class="st0" x1="1710.41" y1="2236.96" x2="1710.41" y2="2236.88"/>
<path d="M1163.76,1716.31v391.79c-72.43-40.21-136.93-92.92-190.42-155.41L1163.76,1716.31z"/>
<path d="M2317.69,1711.26c-48.13,187.39-158.9,349.71-308.8,463.05c-53.02,40.13-110.93,74.13-172.64,100.99
	c-25,10.87-50.61,20.57-76.77,28.95c-16.15,5.28-32.53,10.01-49.06,14.28v-81.59c16.61-4.73,32.99-10.01,49.06-15.84
	c26.32-9.47,51.93-20.34,76.77-32.53c90.05-44.09,170.08-105.34,235.91-179.47c75.3-84.61,131.97-186,163.95-297.86H2317.69z"/>
<path d="M2504.85,1711.26c-79.41,381.62-370.75,685.45-745.38,783.03c-1.4,0.39-2.79,0.7-4.19,1.09
	c-14.83,3.8-29.81,7.3-44.87,10.32v-97.89c16.53-3.88,32.84-8.15,49.06-12.89c26.08-7.45,51.7-16.15,76.77-25.93
	c7.84-2.95,15.6-6.06,23.29-9.31c272.78-114.35,479.58-354.76,547.43-648.42H2504.85z"/>
<polygon points="1500.35,887.25 1500.04,887.09 1499.88,887.01 1500.04,886.63 "/>
<path d="M1289.59,2236.88v81.66c-16.53-4.27-32.91-9-49.06-14.28c-26.16-8.38-51.78-18.09-76.77-29.03
	c-61.71-26.78-119.62-60.78-172.64-100.99c-149.82-113.34-260.67-275.58-308.72-462.97h81.51
	c31.91,111.94,88.65,213.32,163.95,297.93c65.91,74.13,145.94,135.31,235.91,179.4c24.84,12.19,50.46,23.06,76.77,32.53
	C1256.6,2226.87,1272.98,2232.14,1289.59,2236.88z"/>
<path d="M1759.47,1828.33v316.41c-16.07,6.52-32.45,12.42-49.06,17.62c-62.41,19.87-128.63,31.13-197.33,32.37
	c-4.35,0.08-8.69,0.16-13.04,0.16c-4.35,0-8.7-0.08-13.04-0.16c-68.7-1.24-134.99-12.5-197.41-32.37
	c-16.61-5.28-32.99-11.18-49.06-17.7v-316.33l49.06,60.86l210.45,261.22l210.37-261.14L1759.47,1828.33z"/>
<polygon points="2018.9,1200.94 1960.29,1232.38 1928,1290.44 1896.56,1231.84 1838.49,1199.47 1897.03,1168.03 1929.4,1109.96 
	1960.84,1168.57 "/>
<polygon points="934.6,1290.44 933.59,1290.44 934.13,1289.51 "/>
<line class="st0" x1="1500.04" y1="763.97" x2="1500.04" y2="763.12"/>
<line class="st0" x1="1500.04" y1="887.09" x2="1500.04" y2="886.63"/>
<g>
	<path d="M1354.49,2236.88v317.73h291.1v-317.73H1354.49z M1565.56,2429.32c-12.19,23.83-36.95,40.05-65.52,40.05
		c-28.57,0-53.41-16.22-65.6-40.05c-5.2-10.02-8.07-21.43-8.07-33.54c0-20.49,8.38-39.04,21.97-52.47
		c13.27-13.04,31.51-21.12,51.7-21.12c20.1,0,38.35,8.08,51.62,21.12c13.59,13.43,21.97,31.98,21.97,52.47
		C1573.63,2407.89,1570.76,2419.3,1565.56,2429.32z"/>
</g>
<g>
	<path d="M1354.49,445.39v317.73h291.1V445.39H1354.49z M1549.88,658.32c-13.05,12.19-30.67,19.57-49.84,19.57
		c-19.25,0-36.8-7.38-49.92-19.57c-14.59-13.43-23.75-32.68-23.75-54.1c0-11.41,2.56-22.13,7.14-31.75
		c11.96-24.77,37.26-41.84,66.53-41.84c29.26,0,54.57,17.07,66.45,41.84c4.58,9.62,7.14,20.34,7.14,31.75
		C1573.63,625.64,1564.47,644.89,1549.88,658.32z"/>
</g>
<g>
	<path d="M2236.1,1355.34v291.1h317.66v-291.1H2236.1z M2428.46,1566.41c-10.01,5.2-21.42,8.07-33.53,8.07
		c-20.5,0-39.05-8.38-52.48-21.96c-13.04-13.28-21.11-31.52-21.11-51.63c0-20.18,8.07-38.42,21.11-51.7
		c13.43-13.58,31.98-21.97,52.48-21.97c12.11,0,23.52,2.88,33.53,8.08c23.84,12.18,40.06,37.03,40.06,65.59
		C2468.52,1529.46,2452.3,1554.22,2428.46,1566.41z"/>
</g>
<g>
	<path d="M446.24,1355.26v291.11h317.73v-291.11H446.24z M657.62,1552.36c-13.35,13.66-31.98,22.12-52.55,22.12
		c-12.11,0-23.44-2.87-33.54-8.07c-23.75-12.19-40.05-37.03-40.05-65.6c0-28.56,16.3-53.33,40.05-65.51
		c10.1-5.2,21.43-8.08,33.54-8.08c20.57,0,39.2,8.47,52.55,22.13c13.05,13.27,21.04,31.36,21.04,51.46
		C678.66,1520.92,670.67,1539.09,657.62,1552.36z"/>
</g>
<polygon points="1210.72,1166.16 1129.99,1209.48 1085.35,1289.51 1042.04,1208.78 962,1164.14 1042.73,1120.83 1087.37,1040.79 
	1130.69,1121.53 "/>
<polygon points="1295.1,968.21 1263.59,985.13 1246.2,1016.34 1229.35,984.82 1198.15,967.44 1229.58,950.59 1246.97,919.38 
	1263.9,950.82 "/>
<path d="M1604.76,1101.19l209.98-77.55l-314.86-136.63l-233.97,479.51h468.25L1604.76,1101.19z M1543.28,1290.44l-43.24-22.74
	l-43.24,22.74l8.23-48.12l-35.01-34.16l48.36-6.99l21.66-43.78l21.58,43.78l48.36,6.99l-35.01,34.16L1543.28,1290.44z"/>
<polygon points="2106.78,1726.94 2071.53,1745.88 2052.05,1780.82 2033.11,1745.57 1998.17,1726.09 2033.42,1707.23 2052.9,1672.22 
	2071.84,1707.54 "/>
<polygon points="2118.03,1334.85 2089.46,1350.14 2073.63,1378.47 2058.34,1349.91 2029.92,1334.15 2058.57,1318.78 
	2074.33,1290.44 2089.7,1319.01 "/>
<path d="M2026.74,1952.69c-53.56,62.49-118.07,115.28-190.5,155.41v-391.79L2026.74,1952.69z"/>
<line class="st0" x1="2236.1" y1="1290.6" x2="2236.1" y2="1290.44"/>
<path d="M1759.47,1607.32v108.99l-259.43,336.13l-259.51-336.13v-108.99h178.31c-8.31,16.53-13.04,35.86-13.04,56.51
	c0,16.92,3.18,33.07,9.01,47.43c0.62,1.71,1.32,3.42,2.1,5.05c15.84,35.09,47.12,58.92,83.14,58.92c35.94,0,67.22-23.83,83.06-58.92
	c0.78-1.63,1.47-3.34,2.1-5.05c5.82-14.36,9-30.51,9-47.43c0-20.65-4.73-39.98-13.04-56.51H1759.47z"/>
<line class="st0" x1="2236.1" y1="1711.26" x2="2236.1" y2="1711.19"/>
<polygon points="1005.47,1729.89 973.96,1746.82 956.57,1777.95 939.72,1746.51 908.52,1729.12 939.96,1712.27 940.5,1711.26 
	957.34,1681.07 973.57,1711.26 974.27,1712.51 "/>
<polygon points="982.19,1338.34 950.75,1355.19 933.36,1386.39 916.51,1354.95 885.31,1337.56 916.75,1320.64 933.59,1290.44 
	934.6,1290.44 951.06,1320.95 "/>
<polygon points="2146.83,1552.44 853.17,1552.44 1238.9,1428.93 1761.1,1428.93 "/>
</svg>
